<svg width="20" height="20" viewBox="0 0 20 20" fill="none" xmlns="http://www.w3.org/2000/svg">
<path fill-rule="evenodd" clip-rule="evenodd" d="M1 0C0.44772 0 0 0.44772 0 1V19C0 19.5523 0.44772 20 1 20H19C19.5523 20 20 19.5523 20 19V1C20 0.44772 19.5523 0 19 0H1ZM15.2299 8.8934C14.6125 8.4971 13.8913 8.2996 13.0673 8.2996C12.2444 8.2996 11.5231 8.4971 10.9056 8.8934C10.2881 9.2905 9.8114 9.8536 9.4762 10.5839C9.1411 11.3149 8.9735 12.1695 8.9735 13.1493C8.9735 14.1383 9.1411 14.9957 9.4762 15.7221C9.8114 16.4478 10.2881 17.0091 10.9056 17.4052C11.5231 17.8014 12.2444 18 13.0673 18C13.8913 18 14.6125 17.8014 15.2299 17.4052C15.8475 17.0091 16.3242 16.4478 16.6594 15.7221C16.9945 14.9957 17.1612 14.1383 17.1612 13.1493C17.1612 12.1695 16.9945 11.3149 16.6594 10.5839C16.3242 9.8536 15.8475 9.2905 15.2299 8.8934ZM7.47922 17.7994V8.3263L2.92658 9.4351V11.2656L5.20991 10.6774V17.7994H7.47922ZM11.7606 10.9513C12.0767 10.4298 12.5117 10.1701 13.0673 10.1701C13.6239 10.1701 14.0589 10.4298 14.3751 10.9513C14.6913 11.4718 14.8489 12.2058 14.8489 13.1493C14.8489 14.0938 14.6913 14.8268 14.3751 15.3473C14.0589 15.8688 13.6239 16.1296 13.0673 16.1296C12.5117 16.1296 12.0767 15.8688 11.7606 15.3473C11.4442 14.8268 11.2868 14.0938 11.2868 13.1493C11.2868 12.2058 11.4442 11.4718 11.7606 10.9513ZM11.0737 2.19939C10.7285 2.06677 10.3485 2 9.9344 2C9.5194 2 9.1405 2.06677 8.7952 2.19939C8.4521 2.33122 8.1518 2.51771 7.89848 2.75622C7.64404 2.99367 7.44963 3.27379 7.312 3.59396C7.17437 3.91504 7.10556 4.26299 7.10556 4.63872C7.10556 5.01446 7.17437 5.36241 7.312 5.68349C7.44963 6.00352 7.64404 6.28286 7.89848 6.52136C8.1518 6.75974 8.4521 6.9453 8.7952 7.07792C9.1405 7.20976 9.5194 7.27745 9.9344 7.27745C10.3485 7.27745 10.7285 7.20976 11.0737 7.07792C11.4168 6.9453 11.7161 6.75974 11.9704 6.52136C12.2239 6.28286 12.4194 6.00352 12.557 5.68349C12.6947 5.36241 12.7635 5.01446 12.7635 4.63872C12.7635 4.26299 12.6947 3.91504 12.557 3.59396C12.4194 3.27379 12.2239 2.99367 11.9704 2.75622C11.7161 2.51771 11.4168 2.33122 11.0737 2.19939ZM6.75526 3.30869V2.12288H2V3.30869H3.63894V7.15457H5.11632V3.30869H6.75526ZM16.9904 2.3469C16.6683 2.19847 16.2893 2.12327 15.8484 2.12327H13.5101V7.15392H14.9855V5.70838H15.8484C16.2893 5.70838 16.6683 5.63318 16.9904 5.48384C17.3117 5.33541 17.5601 5.12483 17.7366 4.85484C17.9132 4.58578 18 4.26931 18 3.90845C18 3.55682 17.9132 3.24587 17.7366 2.97602C17.5601 2.70683 17.3117 2.49624 16.9904 2.3469ZM9.2392 3.39166C9.4387 3.27379 9.6701 3.21545 9.9344 3.21545C10.1988 3.21545 10.4302 3.27379 10.6297 3.39166C10.8292 3.50954 10.9849 3.67653 11.0955 3.89001C11.2072 4.10521 11.2632 4.35386 11.2632 4.63872C11.2632 4.92267 11.2072 5.17224 11.0955 5.38651C10.9849 5.60092 10.8292 5.76791 10.6297 5.88565C10.4302 6.00352 10.1988 6.062 9.9344 6.062C9.6701 6.062 9.4387 6.00352 9.2392 5.88565C9.0397 5.76791 8.8841 5.60092 8.7724 5.38651C8.6617 5.17224 8.6057 4.92267 8.6057 4.63872C8.6057 4.35386 8.6617 4.10521 8.7724 3.89001C8.8841 3.67653 9.0397 3.50954 9.2392 3.39166ZM14.9855 3.27195H15.6149C15.9252 3.27195 16.1515 3.32845 16.2913 3.43895C16.4309 3.54931 16.5017 3.70616 16.5017 3.90845C16.5017 4.11535 16.4309 4.27589 16.2913 4.38902C16.1515 4.50228 15.9252 4.55878 15.6149 4.55878H14.9855V3.27195Z" fill="#E50914"/>
</svg>
